<svg xmlns="http://www.w3.org/2000/svg" width="16" height="16" viewBox="0 0 16 16" fill="none">
  <path d="M12.3227 3.40401C11.1029 2.18673 9.45 1.50308 7.72672 1.50308C6.00343 1.50308 4.35053 2.18673 3.13072 3.40401L2.69922 3.83801V2.21951C2.69922 2.0869 2.64654 1.95972 2.55277 1.86595C2.459 1.77219 2.33183 1.71951 2.19922 1.71951C2.06661 1.71951 1.93943 1.77219 1.84567 1.86595C1.7519 1.95972 1.69922 2.0869 1.69922 2.21951V5.21951C1.69922 5.35211 1.7519 5.47929 1.84567 5.57306C1.93943 5.66683 2.06661 5.71951 2.19922 5.71951H5.19922C5.33183 5.71951 5.459 5.66683 5.55277 5.57306C5.64654 5.47929 5.69922 5.35211 5.69922 5.21951C5.69922 5.0869 5.64654 4.95972 5.55277 4.86595C5.459 4.77219 5.33183 4.71951 5.19922 4.71951H3.22872L3.83772 4.11101C4.6069 3.34179 5.5869 2.81794 6.65381 2.60571C7.72071 2.39347 8.82659 2.50237 9.8316 2.91865C10.8366 3.33492 11.6956 4.03987 12.3 4.94434C12.9043 5.84882 13.2269 6.9122 13.2269 8.00001C13.2269 9.08781 12.9043 10.1512 12.3 11.0557C11.6956 11.9601 10.8366 12.6651 9.8316 13.0814C8.82659 13.4976 7.72071 13.6065 6.65381 13.3943C5.5869 13.1821 4.6069 12.6582 3.83772 11.889C3.74342 11.7979 3.61712 11.7475 3.48602 11.7487C3.35492 11.7498 3.22951 11.8024 3.13681 11.8951C3.04411 11.9878 2.99152 12.1132 2.99038 12.2443C2.98924 12.3754 3.03964 12.5017 3.13072 12.596C4.35347 13.7965 6.00081 14.4656 7.71435 14.4577C9.42789 14.4498 11.069 13.7656 12.2807 12.554C13.4923 11.3423 14.1765 9.70118 14.1844 7.98764C14.1923 6.27409 13.5232 4.62676 12.3227 3.40401Z" fill="black"/>
  <path d="M8 4.5C7.86739 4.5 7.74021 4.55268 7.64645 4.64645C7.55268 4.74021 7.5 4.86739 7.5 5V8C7.49997 8.07498 7.51681 8.14901 7.54927 8.21661C7.58172 8.2842 7.62897 8.34364 7.6875 8.3905L10.1875 10.3905C10.2388 10.4315 10.2976 10.4621 10.3607 10.4804C10.4238 10.4987 10.4899 10.5043 10.5552 10.4971C10.6204 10.4899 10.6836 10.4698 10.7412 10.4382C10.7987 10.4065 10.8495 10.3638 10.8905 10.3125C10.9315 10.2612 10.9621 10.2024 10.9804 10.1393C10.9987 10.0762 11.0043 10.0101 10.9971 9.94485C10.9899 9.87957 10.9698 9.81635 10.9382 9.75881C10.9065 9.70128 10.8638 9.65054 10.8125 9.6095L8.5 7.76V5C8.5 4.86739 8.44732 4.74021 8.35355 4.64645C8.25979 4.55268 8.13261 4.5 8 4.5Z" fill="black"/>
</svg>